# Blender v2.91.0 OBJ File: 'Walls.blend'
# www.blender.org
mtllib asics.mtl
o Cube
v -0.198914 1.000000 -4.434308
v -0.198914 -1.000000 -4.434308
v -0.198914 1.000000 4.434308
v -0.198914 -1.000000 4.434308
v 0.198914 1.000000 -4.434308
v 0.198914 -1.000000 -4.434308
v 0.198914 1.000000 4.434308
v 0.198914 -1.000000 4.434308
vt 0.602574 0.015109
vt 0.602574 0.265109
vt 0.852574 0.265109
vt 0.852574 0.015109
vt 0.428006 0.042537
vt 0.428006 0.292537
vt 0.678006 0.292537
vt 0.678006 0.042537
vt 0.048954 0.192334
vt 0.958752 0.192334
vt 0.958752 0.824928
vt 0.048954 0.824928
vt 0.180996 0.670260
vt 0.180996 0.920260
vt 0.430997 0.920260
vt 0.430997 0.670260
vt 0.269858 0.046639
vt 0.269858 0.296639
vt 0.519858 0.296639
vt 0.519858 0.046639
vt 0.419852 0.051274
vt 0.419852 0.301274
vt 0.669852 0.301274
vt 0.669852 0.051274
vn 0.0000 1.0000 0.0000
vn 0.0000 0.0000 1.0000
vn 1.0000 0.0000 0.0000
vn 0.0000 -1.0000 0.0000
vn -1.0000 0.0000 0.0000
vn 0.0000 0.0000 -1.0000
usemtl Material.002
s off
f 1/1/1 3/2/1 7/3/1 5/4/1
f 4/5/2 8/6/2 7/7/2 3/8/2
f 8/9/3 6/10/3 5/11/3 7/12/3
f 6/13/4 8/14/4 4/15/4 2/16/4
f 2/17/5 4/18/5 3/19/5 1/20/5
f 6/21/6 2/22/6 1/23/6 5/24/6
